<?xml version="1.0" encoding="UTF-8"?>
<svg id="Paw_Icon" data-name="Paw Icon" xmlns="http://www.w3.org/2000/svg" viewBox="0 0 61.32 61.32">
  <g transform="translate(-296.09 0)">
    <g>
      <path d="M339.99,43.73v-11.93c0-.82-.44-1.57-1.14-1.98l-10.33-5.97c-.71-.41-1.58-.41-2.29,0l-10.33,5.97c-.71.41-1.14,1.16-1.14,1.98v11.93c0,.82.44,1.57,1.14,1.98l10.33,5.97c.71.41,1.58.41,2.29,0l10.33-5.97c.71-.41,1.14-1.16,1.14-1.98Z"/>
      <path d="M306.15,21.23v3.93c0,.56.28,1.09.75,1.4l2.56,1.73c.57.38,1.32.38,1.89,0l2.56-1.73c.47-.31.75-.84.75-1.4v-3.93c0-.56-.28-1.09-.75-1.4l-2.56-1.73c-.57-.38-1.32-.38-1.89,0l-2.56,1.73c-.47.31-.75.84-.75,1.4Z"/>
      <path d="M339.42,21.23v3.93c0,.56.28,1.09.75,1.4l2.57,1.73c.57.38,1.32.38,1.89,0l2.57-1.73c.47-.31.75-.84.75-1.4v-3.93c0-.56-.28-1.09-.75-1.4l-2.57-1.73c-.57-.38-1.32-.38-1.89,0l-2.57,1.73c-.47.31-.75.84-.75,1.4Z"/>
      <path d="M316.74,14.72v3.93c0,.56.28,1.09.75,1.41l2.56,1.72c.57.39,1.32.39,1.89,0l2.56-1.72c.47-.31.75-.84.75-1.41v-3.93c0-.56-.28-1.09-.75-1.41l-2.56-1.72c-.57-.39-1.32-.39-1.89,0l-2.56,1.72c-.47.31-.75.84-.75,1.41Z"/>
      <path d="M328.26,14.72v3.93c0,.56.28,1.09.75,1.4l2.56,1.72c.57.39,1.32.39,1.89,0l2.56-1.72c.47-.31.75-.84.75-1.4v-3.93c0-.56-.28-1.09-.75-1.4l-2.56-1.72c-.57-.39-1.32-.39-1.89,0l-2.56,1.72c-.47.31-.75.84-.75,1.4Z"/>
    </g>
    <path d="M326.75,61.32c-16.91,0-30.66-13.75-30.66-30.66S309.84,0,326.75,0s30.66,13.75,30.66,30.66-13.75,30.66-30.66,30.66ZM326.75,3.8c-14.81,0-26.86,12.05-26.86,26.86s12.05,26.86,26.86,26.86,26.86-12.05,26.86-26.86-12.05-26.86-26.86-26.86Z"/>
  </g>
</svg>